#N canvas 1245 33 471 484 12;
#X msg 21 222 create;
#X obj 21 354 gemwin;
#X msg 37 249 destroy;
#X msg 45 297 1;
#X msg 82 297 0;
#X obj 170 195 gemhead;
#X obj 130 294 separator;
#X floatatom 349 368 5 0 0 0 - - -;
#X obj 248 394 rotateXYZ 0 0 0;
#X obj 238 250 separator;
#X obj 71 417 triangle 0.5;
#X obj 248 418 triangle 0.5;
#X floatatom 314 170 5 0 0 0 - - -;
#X floatatom 314 301 5 0 0 0 - - -;
#X floatatom 366 302 5 0 0 0 - - -;
#X obj 314 271 * 3;
#X obj 366 271 * 3;
#X obj 314 247 sin;
#X obj 366 248 cos;
#X obj 314 193 / 360;
#X obj 314 217 * -6.28319;
#X obj 98 347 color 0.5 0.5 0.5;
#X obj 226 289 color 1 1 1;
#X obj 328 118 inlet;
#X obj 404 118 inlet;
#X obj 40 115 inlet;
#X floatatom 328 142 5 0 0 0 - - -;
#X floatatom 404 142 5 0 0 0 - - -;
#X obj 240 336 translateXYZ 0 3 0;
#X obj 162 130 block~ 131072;
#X obj 158 24 netreceive 1000;
#X obj 158 57 route Azi Ori;
#X obj 14 57 netreceive 1001;
#X connect 0 0 1 0;
#X connect 2 0 1 0;
#X connect 3 0 1 0;
#X connect 4 0 1 0;
#X connect 5 0 6 0;
#X connect 5 0 9 0;
#X connect 6 0 21 0;
#X connect 7 0 8 3;
#X connect 8 0 11 0;
#X connect 9 0 22 0;
#X connect 12 0 19 0;
#X connect 13 0 28 1;
#X connect 14 0 28 2;
#X connect 15 0 13 0;
#X connect 16 0 14 0;
#X connect 17 0 15 0;
#X connect 18 0 16 0;
#X connect 19 0 20 0;
#X connect 20 0 17 0;
#X connect 20 0 18 0;
#X connect 21 0 10 0;
#X connect 22 0 28 0;
#X connect 23 0 12 0;
#X connect 23 0 26 0;
#X connect 24 0 7 0;
#X connect 24 0 27 0;
#X connect 25 0 1 0;
#X connect 28 0 8 0;
#X connect 30 0 31 0;
#X connect 31 0 12 0;
#X connect 31 1 7 0;
#X connect 32 0 1 0;
