#N canvas 620 34 800 755 12;
#X obj 4 7 cnv 15 550 40 empty \$0-pddp.cnv.header spaspeech~ 3 12
0 18 -204280 -1 0;
#X obj 204 219 vsl 15 100 0 359 0 0 empty empty SpeakerAzimuth 0 -9
0 10 -262130 -1 -1 0 1;
#X floatatom 156 334 5 0 0 1 deg - -;
#X obj 9 220 openpanel;
#X obj 9 199 bng 15 250 50 0 empty empty empty 17 7 0 10 -262144 -1
-1;
#X msg 9 243 read -resize \$1 soundfile;
#X obj 9 268 soundfiler;
#N canvas 0 22 450 278 (subpatch) 0;
#X array soundfile 233873 float 2;
#X coords 0 1 233873 -1 200 70 1 0 0;
#X restore 259 499 graph;
#X obj 11 366 tabplay~ soundfile;
#X obj 11 317 bng 15 250 50 0 empty \$0-EOF empty 17 7 0 10 -262144
-1 -1;
#X msg 33 340 stop;
#X obj 218 513 *~;
#X obj 172 514 *~;
#X floatatom 15 480 5 0 0 0 - - -;
#X obj 5 573 cnv 3 550 3 empty \$0-pddp.cnv.inlets inlets 8 12 0 13
-228856 -1 0;
#X obj 5 650 cnv 3 550 3 empty \$0-pddp.cnv.outlets outlets 8 12 0
13 -228856 -1 0;
#X obj 83 582 cnv 17 3 17 empty \$0-pddp.cnv.let.0 0 5 9 0 16 -228856
-162280 0;
#X obj 83 659 cnv 17 3 17 empty \$0-pddp.cnv.let.0 0 5 9 0 16 -228856
-162280 0;
#X obj 83 604 cnv 17 3 17 empty \$0-pddp.cnv.let.1 1 5 9 0 16 -228856
-162280 0;
#X text 103 603 float;
#X text 103 658 signal;
#X obj 84 679 cnv 17 3 17 empty \$0-pddp.cnv.let.0 1 5 9 0 16 -228856
-162280 0;
#X text 104 678 signal;
#X text 103 581 symbol and signal;
#X text 172 658 - convolved signal for the left channel;
#X text 173 677 - convolved signal for the right channel;
#X obj 126 390 bng 15 250 50 0 \$0-EOF empty empty 17 7 0 10 -262144
-1 -1;
#X obj 18 439 hsl 64 15 0 1 0 0 empty empty level -2 -8 0 10 -262144
-1 -1 6300 1;
#X text 6 182 1) Select audio file;
#X msg 91 515 \; pd dsp 1;
#X obj 62 480 moses 0;
#X msg 15 515 \; pd dsp 0;
#X obj 290 219 vsl 15 100 0 359 0 0 empty empty SpeakerOrientation
0 -9 0 10 -203904 -1 -1 0 1;
#X floatatom 242 334 5 0 0 1 deg - -;
#X obj 84 625 cnv 17 3 17 empty \$0-pddp.cnv.let.1 2 5 9 0 16 -228856
-162280 0;
#X text 104 625 float;
#X text 7 294 2) play;
#X text 201 185 3) Adjust coordinates;
#X obj 172 550 dac~ 2 1;
#X text 19 30 Frequency-based convolution filter for SOFA HRIRs;
#X text 225 582 - signal;
#X text 141 603 - azimuth (0..359 deg.);
#X text 142 625 - speaker_azimuth (0..360 deg.);
#X text 80 701 *[dac~ 2 1] is that the output is reversed on the use
of SOFA.;
#X obj 172 478 spaspeech~;
#X text 5 50 [spaspeech~] outputs the convolution of a monaural signal
(first inlet) with the HRIR measurements from a SOFA file (first inlet
\, too) \, depending on the azimuth of the loudspeakers (second inlets).
NOTE: Make sure that the SOFA file and Pd have the same sampling rate
Global Coordinates The listener is located at the center of the circle
and the speaker is located around it. The orientation of the speaker
is 0ยบ in front and 90ยบ to the left. For more information \, please
refer to the image on the following website https://www.sofaconventions.org/mediawiki/index.php/File:SimpleFreeFieldHRIR-0.3.png
, f 76;
#X obj 497 524 netsend;
#X msg 377 375 disconnect;
#X msg 248 417 connect localhost 1000;
#X msg 174 359 send Azi \$1;
#X msg 266 359 send Ori \$1;
#X obj 462 550 netsend;
#X msg 248 444 connect localhost 1001;
#X msg 487 367 send 1;
#X msg 466 343 send destroy;
#X msg 448 318 send create;
#X msg 510 391 send 0;
#X text 340 325 Press Bang;
#X obj 421 327 bng 15 250 50 0 empty empty empty 17 7 0 10 -262144
-1 -1;
#X obj 450 208 spaspeech_GUI;
#X text 339 227 4) GUI (If you want to image) You put create \, Gem
display. "1" is display on. "0" is display off. Please "destroy" \,
if you don't move.;
#X connect 1 0 2 0;
#X connect 2 0 44 1;
#X connect 2 0 49 0;
#X connect 3 0 5 0;
#X connect 4 0 3 0;
#X connect 5 0 6 0;
#X connect 8 0 44 0;
#X connect 8 1 26 0;
#X connect 9 0 8 0;
#X connect 10 0 8 0;
#X connect 11 0 38 1;
#X connect 12 0 38 0;
#X connect 13 0 11 1;
#X connect 13 0 12 1;
#X connect 27 0 13 0;
#X connect 27 0 30 0;
#X connect 30 0 31 0;
#X connect 30 1 29 0;
#X connect 32 0 33 0;
#X connect 33 0 44 2;
#X connect 33 0 50 0;
#X connect 44 0 12 0;
#X connect 44 1 11 0;
#X connect 47 0 46 0;
#X connect 47 0 51 0;
#X connect 48 0 46 0;
#X connect 49 0 46 0;
#X connect 50 0 46 0;
#X connect 52 0 51 0;
#X connect 53 0 51 0;
#X connect 54 0 51 0;
#X connect 55 0 51 0;
#X connect 56 0 51 0;
#X connect 58 0 48 0;
#X connect 58 0 52 0;
